<svg width="16" height="16" viewBox="0 0 16 16" fill="none" xmlns="http://www.w3.org/2000/svg">
<path d="M14.9537 6.08173L8.14688 1.23389C8.10435 1.20371 8.0535 1.1875 8.00136 1.1875C7.94922 1.1875 7.89837 1.20371 7.85584 1.23389L1.04688 6.08173C1.01386 6.10461 0.986729 6.13499 0.967717 6.17038C0.948706 6.20577 0.93835 6.24516 0.9375 6.28532V14.5615C0.939238 14.6287 0.967178 14.6925 1.01535 14.7393C1.06351 14.7861 1.12808 14.8122 1.19525 14.812H14.8046C14.8052 14.812 14.8057 14.8117 14.8062 14.8117C14.8153 14.8116 14.8244 14.811 14.8334 14.8099C14.8359 14.8096 14.8384 14.8091 14.8409 14.8087C14.8481 14.8076 14.8552 14.8063 14.8622 14.8047C14.8648 14.8041 14.8673 14.8034 14.8699 14.8027C14.877 14.8008 14.8838 14.7986 14.8907 14.7961C14.8929 14.7953 14.8952 14.7945 14.8975 14.7936C14.9056 14.7904 14.9136 14.7867 14.9213 14.7826C14.9221 14.7823 14.9228 14.782 14.9236 14.7816C14.9317 14.7772 14.9396 14.7723 14.9471 14.767C14.9498 14.7651 14.9525 14.763 14.9551 14.761C14.96 14.7573 14.9648 14.7534 14.9694 14.7494C14.9722 14.747 14.9749 14.7445 14.9776 14.742C14.9828 14.737 14.9878 14.7318 14.9925 14.7264C14.994 14.7246 14.9956 14.7231 14.9971 14.7213C15.0032 14.7138 15.009 14.706 15.0142 14.6979C15.0147 14.6972 15.0153 14.6966 15.0157 14.6959C15.017 14.6938 15.018 14.6917 15.0193 14.6896C15.0218 14.6854 15.0243 14.6811 15.0266 14.6767C15.0282 14.6736 15.0297 14.6703 15.0312 14.6671C15.0332 14.6629 15.0351 14.6588 15.0368 14.6546C15.0383 14.6509 15.0396 14.6472 15.0409 14.6435C15.0422 14.6398 15.0436 14.6357 15.0447 14.6317C15.0459 14.6278 15.047 14.6232 15.0478 14.6189C15.0487 14.6154 15.0495 14.6118 15.0502 14.6082C15.0511 14.6034 15.0518 14.5985 15.0524 14.5937C15.0528 14.5905 15.0533 14.5874 15.0536 14.584C15.054 14.5787 15.0581 14.5734 15.0583 14.5681C15.0583 14.5659 15.0625 14.5638 15.0625 14.5616V6.28532C15.0617 6.2452 15.0515 6.20583 15.0326 6.17044C15.0137 6.13505 14.9866 6.10465 14.9537 6.08173ZM14.4597 6.3411L12.0312 8.98923V4.73482C12.0304 4.70063 12.0226 4.66696 12.0083 4.63586C11.9941 4.60475 11.9737 4.57685 11.9484 4.55382L14.4597 6.3411ZM8 1.74445L11.8857 4.52007C11.8498 4.50413 11.8106 4.49708 11.7713 4.49951H4.22869C4.18944 4.49708 4.15019 4.50413 4.11425 4.52007L8 1.74445ZM11.5312 4.99951V9.53389L9.99878 11.1979L8.13691 10.0124C8.09646 9.98677 8.04955 9.97318 8.00167 9.97322C7.95378 9.97327 7.9069 9.98695 7.8665 10.0127L6.11562 11.1298L4.46875 9.38111V4.99951H11.5312ZM4.04913 4.55382C4.02416 4.57697 4.00417 4.60495 3.99035 4.63607C3.97653 4.66718 3.96918 4.70078 3.96875 4.73482V8.84835L1.5895 6.30773L4.04913 4.55382ZM1.4375 6.87948L5.68372 11.404L1.4375 14.1218V6.87948ZM2.07628 14.312L6.21178 11.6649C6.21222 11.6646 6.21263 11.6642 6.213 11.6639L8.00028 10.5199L9.90472 11.7341C9.90503 11.7341 9.90531 11.7347 9.90559 11.7349L13.9476 14.312H2.07628ZM14.5625 14.1058L10.4297 11.4709L14.5625 6.96885V14.1058Z" fill="white"/>
<path d="M6.81278 6.9375C6.81278 7.0038 6.83912 7.06739 6.886 7.11428C6.93289 7.16116 6.99648 7.1875 7.06278 7.1875H8.09272C8.04823 7.28082 7.97827 7.35967 7.89091 7.41496C7.80356 7.47025 7.70235 7.49973 7.59897 7.5H7.06278C7.01288 7.49948 6.96398 7.51405 6.9225 7.5418C6.88102 7.56954 6.84888 7.60917 6.8303 7.65549C6.81173 7.70181 6.80757 7.75266 6.81839 7.80138C6.8292 7.8501 6.85448 7.89442 6.89091 7.92853L8.23113 9.19444C8.27937 9.24 8.34375 9.26453 8.41008 9.26263C8.47642 9.26073 8.53928 9.23256 8.58484 9.18431C8.63041 9.13606 8.65494 9.07169 8.65304 9.00536C8.65114 8.93902 8.62297 8.87616 8.57472 8.83059L7.6875 7.98997C7.90795 7.97139 8.11695 7.88388 8.28487 7.73984C8.45279 7.59581 8.57109 7.40255 8.623 7.1875H8.93666C9.00296 7.1875 9.06655 7.16116 9.11343 7.11428C9.16032 7.06739 9.18666 7.0038 9.18666 6.9375C9.18666 6.8712 9.16032 6.80761 9.11343 6.76072C9.06655 6.71384 9.00296 6.6875 8.93666 6.6875H8.62278C8.59366 6.57834 8.55078 6.47333 8.49516 6.375H8.93666C9.00296 6.375 9.06655 6.34866 9.11343 6.30178C9.16032 6.25489 9.18666 6.1913 9.18666 6.125C9.18666 6.0587 9.16032 5.99511 9.11343 5.94822C9.06655 5.90134 9.00296 5.875 8.93666 5.875H7.06278C6.99648 5.875 6.93289 5.90134 6.886 5.94822C6.83912 5.99511 6.81278 6.0587 6.81278 6.125C6.81278 6.1913 6.83912 6.25489 6.886 6.30178C6.93289 6.34866 6.99648 6.375 7.06278 6.375H7.599C7.70238 6.37528 7.80358 6.40476 7.89094 6.46005C7.9783 6.51534 8.04825 6.59418 8.09275 6.6875H7.06278C6.99648 6.6875 6.93289 6.71384 6.886 6.76072C6.83912 6.80761 6.81278 6.8712 6.81278 6.9375Z" fill="white"/>
</svg>
